<?xml version="1.0" encoding="utf-8"?>
<!-- Svg Vector Icons : http://www.onlinewebfonts.com/icon -->
<!DOCTYPE svg PUBLIC "-//W3C//DTD SVG 1.1//EN" "http://www.w3.org/Graphics/SVG/1.1/DTD/svg11.dtd">
<svg version="1.1" xmlns="http://www.w3.org/2000/svg" xmlns:xlink="http://www.w3.org/1999/xlink" x="0px" y="0px" viewBox="0 0 1000 1000" enable-background="new 0 0 1000 1000" xml:space="preserve">
<metadata> Svg Vector Icons : http://www.onlinewebfonts.com/icon </metadata>
<g><path d="M500,41.2c-15.6,0-31,0.8-46.2,2.3c5.7,8.8,11.4,18,16.8,27.6c5.2,9,10.2,18.5,15.2,28.1c4.8-0.2,9.5-0.3,14.3-0.3c229.8,0,416.7,187,416.7,416.7c0,43.8-6.8,86-19.4,125.6c7.7,8.7,15,17.4,21.8,26c7.4,9.4,14.1,18.7,20.1,27.6c22.6-55.3,35.2-115.8,35.2-179.2C974.4,254,761.6,41.2,500,41.2z"/><path d="M571.6,926.2c-23.2,4-47.1,6.1-71.5,6.1c-229.8,0-416.7-187-416.7-416.7c0-62.3,13.8-121.5,38.4-174.6c-2.3-8.9-4.5-17.5-6.6-25.7c-1.4-5.7-2.9-11.3-4.2-16.7c-3.5-14.1-6.7-27.5-9.2-40.2c-48.1,74.2-76,162.5-76,257.2C25.6,777.2,238.5,990,500,990c50.9,0,99.9-8.1,145.9-23c-11.9-5.4-24.4-11.7-37.6-19.1C596.7,941.5,584.5,934.2,571.6,926.2z"/><path d="M892,727.6c-5.7-8.8-12.1-17.6-19-26.3c-45.2-57.1-109.8-108.2-126.5-108.8c-0.3,0-0.5,0-0.9,0c-29.7,0-85.7,53.4-118.1,141.1c-255.4-141-309.1-411.8-309.1-411.8s185.2-37.2,157.9-103.7c-11-26.7-29.4-71.3-52.2-112.4c-5-9.1-10.2-17.9-15.6-26.4c-5.8-9.1-11.7-17.7-17.9-25.5c-20.3-26-42.4-44-64.8-44c-7.5,0-14.9,2-22.4,6.3C181.3,91.2,147.7,132.8,150,195.7c0.4,11.8,2.1,24.5,4.8,38.2c2.2,11.4,5,23.5,8.3,36.7c4.7,18.7,10.2,39.4,16.1,62.6c60.2,175.1,99.2,294.1,285.8,451.4c81.2,57.2,139.3,96.4,184.6,120c12.8,6.7,24.6,12.1,35.6,16.4c15.4,5.9,29.2,9.5,42.2,10.9c4.1,0.4,8.1,0.7,12.1,0.7c53.6,0,94.1-40.2,173.2-109c10.6-18.1,7.3-41.6-4.2-66.8C904,747.2,898.4,737.4,892,727.6z"/></g>
</svg>